<svg width="344" height="154" viewBox="0 0 344 154" fill="none" xmlns="http://www.w3.org/2000/svg">
  <g clip-path="url(#clip1_30088_33827)">
    <path opacity="0.54"
          d="M202.909 112.119C206.459 111.611 210.145 111.814 213.651 112.752C215.957 113.374 218.195 114.334 219.994 115.906C221.735 117.512 222.99 119.783 222.934 122.158C222.844 124.86 221.045 127.336 218.672 128.557C210.215 132.967 201.418 123.594 199.338 116.052L202.91 112.118L202.909 112.119Z"
          fill="url(#paint0_linear_30088_33827)"/>
    <path opacity="0.54"
          d="M200.613 104.838C203.191 101.095 206.549 97.8844 210.438 95.4767C212.971 93.8944 215.831 92.616 218.839 92.3452C221.846 92.0626 225.024 92.9223 227.183 95.0249C229.591 97.422 230.371 101.22 229.456 104.51C226.268 116.11 209.976 116.201 201.236 111.622L200.614 104.839L200.613 104.838Z"
          fill="url(#paint1_linear_30088_33827)"/>
    <path
      d="M205.612 126.897C206.392 115.048 197.595 104.838 186.029 104.127C174.463 103.369 164.479 112.38 163.711 124.184C163.078 134.202 169.217 143.02 178.114 145.948C177.809 148.504 177.255 151.036 176.419 153.501C178.906 153.365 181.337 152.257 183.09 150.494C183.779 149.815 184.334 148.99 184.887 148.21C185.17 147.792 185.44 147.385 185.668 147.012C196.216 146.459 204.9 137.889 205.612 126.899V126.897Z"
      fill="url(#paint2_linear_30088_33827)"/>
    <path
      d="M157.999 98.0087C157.929 98.2748 157.911 98.4025 157.904 98.6355C157.895 98.9063 157.904 99.1771 157.924 99.4467C157.935 99.5851 157.943 99.7388 157.941 99.8582C157.558 122.934 163.388 148.118 187.083 147.035C202.317 145.763 212.345 129.243 212.163 98.2854C212.16 97.9389 212.093 97.5936 211.945 97.2802C207.571 88.0361 169.915 94.2765 160.364 96.4288C160.133 96.4891 160.207 96.4536 159.741 96.6334C159.36 96.7812 159.077 96.8723 158.738 97.0981C158.659 97.1513 158.565 97.2235 158.489 97.2838L158.156 97.6468C158.086 97.7592 158.032 97.8798 157.999 98.0087Z"
      fill="url(#paint3_linear_30088_33827)"/>
    <mask id="mask0_30088_33827" style="mask-type:luminance" maskUnits="userSpaceOnUse" x="157" y="92" width="56"
          height="56">
      <path
        d="M157.999 98.0087C157.929 98.2748 157.911 98.4025 157.904 98.6355C157.895 98.9063 157.904 99.1771 157.924 99.4467C157.935 99.5851 157.943 99.7388 157.941 99.8582C157.558 122.934 163.388 148.118 187.083 147.035C202.317 145.763 212.345 129.243 212.163 98.2854C212.16 97.9389 212.093 97.5936 211.945 97.2802C207.571 88.0361 169.915 94.2765 160.364 96.4288C160.133 96.4891 160.207 96.4536 159.741 96.6334C159.36 96.7812 159.077 96.8723 158.738 97.0981C158.659 97.1513 158.565 97.2235 158.489 97.2838L158.156 97.6468C158.086 97.7592 158.032 97.8798 157.999 98.0087Z"
        fill="white"/>
    </mask>
    <g mask="url(#mask0_30088_33827)">
      <path
        d="M158.9 121.132C158.9 121.132 178.348 123.665 185.053 123.948C191.758 124.219 210.407 123.439 210.407 123.439C210.748 122.195 211.006 121.664 211.946 116.52C212.592 112.202 212.686 111.128 212.85 109.646C212.85 109.646 191.312 110.539 184.607 110.268C177.902 109.997 157.033 107.283 157.033 107.283C157.033 108.776 157.338 110.075 157.714 114.056C158.29 117.945 158.701 120.342 158.9 121.133V121.132Z"
        fill="url(#paint4_linear_30088_33827)"/>
      <path
        d="M165.841 137.582C165.841 137.582 180.72 138.961 187.413 139.29C194.107 139.607 202.069 139.674 202.069 139.674C202.997 138.781 204.03 137.379 205.17 135.785C206.415 133.896 207.237 132.393 207.554 131.466C207.554 131.466 194.225 131.783 187.53 131.466C180.837 131.149 161.283 129.307 161.283 129.307C162.012 130.901 161.905 130.606 162.939 132.993C164.395 135.491 165.218 136.679 165.84 137.583L165.841 137.582Z"
        fill="url(#paint5_linear_30088_33827)"/>
      <path
        d="M212.161 97.8417C209.289 87.3156 154.591 93.1469 157.904 98.6364C159.182 100.672 198.774 109.736 212.161 98.8823V97.8417Z"
        fill="url(#paint6_linear_30088_33827)"/>
    </g>
    <g filter="url(#filter0_d_30088_33827)">
      <path
        d="M120.81 60.7994L120.938 57.3179L117.582 50.433L120.807 49.8712L122.544 53.9889L122.602 53.9818L124.575 49.2007L127.95 48.6035L124.06 56.7597L123.932 60.2412L120.81 60.7994Z"
        fill="#1479F3"/>
      <path
        d="M127.865 55.1047C127.18 51.2117 129.344 48.1843 132.605 47.6131C135.715 47.0656 137.813 48.707 138.263 51.2756C138.947 55.1804 136.738 58.2042 133.489 58.7754C130.461 59.2946 128.315 57.6721 127.865 55.1035V55.1047ZM130.989 54.3526C131.221 55.6996 132.076 56.4552 133.147 56.2601C134.576 56.0118 135.498 54.0995 135.128 52.0028C134.896 50.6559 134.03 49.9109 132.957 50.106C131.54 50.3555 130.629 52.2677 130.989 54.3526Z"
        fill="#1479F3"/>
      <path
        d="M139.716 53.9733C139.667 53.6966 139.645 53.3773 139.658 53.0486L139.893 46.516L143.014 45.9697L142.781 52.4797C142.776 52.695 142.786 52.8889 142.819 53.0628C142.963 53.9036 143.732 54.2773 144.549 54.1318C145.46 53.971 145.937 53.3336 145.981 52.2574L146.215 45.4174L149.336 44.8711L149.072 52.4254C148.998 54.7053 147.309 56.3456 144.879 56.7725C142.069 57.2621 140.094 56.1067 139.715 53.9757L139.716 53.9733Z"
        fill="#1479F3"/>
      <path
        d="M117.672 49.3278L117.966 40.889L115.018 41.4034L115.112 38.8408L124.13 37.2656L124.036 39.8283L121.088 40.3427L120.783 48.7815L117.672 49.329V49.3278Z"
        fill="#1479F3"/>
      <path
        d="M131.609 46.8917L131.772 42.6049L128.178 43.2317L128.015 47.5185L124.824 48.0826L125.224 37.0811L128.415 36.517L128.257 40.7246L131.851 40.0978L132.008 35.8903L135.199 35.3262L134.799 46.3276L131.609 46.8917Z"
        fill="#1479F3"/>
      <path
        d="M142.839 42.7373L139.614 43.299L138.947 45.5932L135.664 46.1738L139.646 34.5456L143.561 33.8633L146.512 44.2888L143.309 44.8529L142.838 42.7373H142.839ZM140.31 40.9173L142.349 40.5531L141.536 36.8777L141.467 36.8836L140.31 40.9161V40.9173Z"
        fill="#1479F3"/>
      <path
        d="M147.367 44.1222L147.767 33.1208L150.117 32.7116L154.029 38.0332L154.087 38.0261L154.297 31.9914L157.281 31.4688L156.881 42.4702L154.531 42.8794L150.619 37.5472L150.561 37.5543L150.351 43.5889L147.367 44.1234V44.1222Z"
        fill="#1479F3"/>
      <path
        d="M158.47 42.1761L158.87 31.1747L161.99 30.6283L161.823 35.1304L161.88 35.1233L165.25 30.0572L168.775 29.4375L164.909 35.2297L168.271 40.4661L164.862 41.0598L162.622 37.4399L161.702 38.8283L161.601 41.6298L158.469 42.1761H158.47Z"
        fill="#1479F3"/>
    </g>
    <path d="M152.427 33.8145L149.51 60.9603L151.658 60.9722L153.061 33.928L152.428 33.8145H152.427Z" fill="white"/>
    <path
      d="M151.703 60.26L153.071 33.9171L152.902 33.8828L152.394 34.143L152.371 34.279C152.552 34.3807 152.869 34.415 152.902 34.3807C152.812 34.9341 150.98 60.1359 150.98 60.1359L151.704 60.26H151.703Z"
      fill="url(#paint7_linear_30088_33827)"/>
    <path
      d="M153.603 33.8143V33.78C153.603 33.735 153.591 33.6901 153.58 33.644C153.58 33.6321 153.569 33.6215 153.569 33.6097C153.557 33.5754 153.546 33.5423 153.534 33.508C153.522 33.4855 153.522 33.4737 153.512 33.4512C153.489 33.4169 153.477 33.3838 153.455 33.3495C153.443 33.327 153.433 33.3152 153.41 33.2927C153.398 33.2809 153.388 33.2584 153.365 33.2478C153.241 33.1118 153.082 33.0101 152.89 32.977C152.426 32.8978 151.974 33.2147 151.906 33.6783C151.872 33.8592 151.906 34.0401 151.985 34.1986C151.997 34.2329 152.019 34.2553 152.03 34.2885C152.042 34.3109 152.052 34.3334 152.075 34.3452C152.087 34.3677 152.109 34.3902 152.12 34.402C152.142 34.4245 152.154 34.4363 152.177 34.4588C152.199 34.4812 152.233 34.5037 152.256 34.5262C152.268 34.538 152.278 34.5486 152.29 34.5486C152.324 34.5711 152.369 34.5936 152.414 34.616C152.426 34.616 152.437 34.6279 152.449 34.6279C152.494 34.6503 152.539 34.6622 152.595 34.6728C152.945 34.7402 153.285 34.5711 153.466 34.2885C153.522 34.1986 153.567 34.0851 153.59 33.9715C153.59 33.9148 153.602 33.8698 153.602 33.8131L153.603 33.8143Z"
      fill="white"/>
    <path opacity="0.34"
          d="M153.32 33.1914C153.399 33.3499 153.434 33.5308 153.399 33.7117C153.32 34.1753 152.879 34.4922 152.416 34.413C152.246 34.3787 152.11 34.3113 151.986 34.1978C152.1 34.4355 152.326 34.6164 152.608 34.6613C153.072 34.7406 153.524 34.4236 153.592 33.9601C153.637 33.6656 153.535 33.383 153.321 33.1914H153.32Z"
          fill="url(#paint8_linear_30088_33827)"/>
    <path
      d="M150.618 57.4102C143.134 58.2924 139.334 78.4055 149.295 80.3733C152.959 68.6942 150.618 57.4102 150.618 57.4102Z"
      fill="#07090C"/>
    <g opacity="0.8">
      <path
        d="M146.277 60.4399C143.349 64.6569 143.925 75.1381 145.169 77.7385C146.131 79.0618 147.487 80.0114 149.285 80.3733C152.959 68.6942 150.608 57.4102 150.608 57.4102C148.946 57.6029 147.465 58.7559 146.277 60.4399Z"
        fill="#515355"/>
    </g>
    <path opacity="0.4"
          d="M151.172 61.855C150.957 59.1079 150.595 57.4121 150.595 57.4121C147.068 57.8307 144.365 62.4995 143.518 67.542C146.864 66.6716 149.408 64.3881 151.172 61.855Z"
          fill="url(#paint9_linear_30088_33827)"/>
    <path
      d="M159.833 43.8761C145.61 51.9483 145.621 80.9485 152.19 88.0155C158.759 95.0814 198.93 105.438 211.513 93.68C215.844 89.599 225.307 66.6701 216.952 53.961C208.439 41.0604 177.743 33.7225 159.834 43.8761H159.833Z"
      fill="url(#paint10_linear_30088_33827)"/>
    <path
      d="M170.788 40.382C170.268 40.8337 171.15 40.8574 174.643 40.8231C176.453 40.8113 181.371 40.8905 186.029 41.5468C191.422 42.3155 196.228 43.2202 195.435 41.0833C187.498 39.0599 178.702 38.7879 170.788 40.382Z"
      fill="url(#paint11_linear_30088_33827)"/>
    <path
      d="M170.415 40.055C169.895 40.5068 170.777 40.5304 174.27 40.4961C176.08 40.4843 180.998 40.5635 185.656 41.2198C191.049 41.9885 195.888 43.1415 195.097 41.0046C187.159 38.9694 178.33 38.4491 170.415 40.055Z"
      fill="#FFB400"/>
    <path
      d="M149.566 80.8353C148.605 80.2818 149.182 81.8984 149.521 82.9604C150.211 85.1091 151.115 86.8723 152.189 88.0253C158.769 95.103 198.929 105.448 211.513 93.6898C215.843 89.6088 225.306 66.6799 216.951 53.9708C216.94 53.9484 216.929 53.9259 216.906 53.9034C216.138 52.7504 214.34 53.5759 214.725 54.9098C217.98 66.4198 212.09 82.4743 207.794 86.974C202.536 92.4682 187.329 86.2278 174.339 85.2439C164.209 84.4859 154.01 83.3672 149.567 80.8341L149.566 80.8353Z"
      fill="url(#paint12_linear_30088_33827)"/>
    <path
      d="M186.888 39.4891C181.337 38.8671 175.684 38.9806 170.415 40.0426C169.895 40.4943 170.777 40.518 174.27 40.4837C175.864 40.4718 179.89 40.5286 184.005 41.004C185.317 40.5629 186.346 40.0426 186.888 39.4891Z"
      fill="#FBC900"/>
    <path
      d="M160.025 48.8287C154.417 51.0555 147.848 74.267 154.224 79.6832C156.203 81.2997 164.196 80.0569 173.705 81.4582C186.435 83.3349 200.85 87.1795 203.644 85.732C208.517 83.2108 213.955 60.4179 208.709 54.6848C203.428 48.9411 171.308 44.3397 160.025 48.8287Z"
      fill="url(#paint13_linear_30088_33827)"/>
    <path
      d="M159.007 47.5843C153.399 49.8229 146.83 73.0344 153.196 78.4505C155.174 80.0671 163.167 78.8242 172.676 80.2256C185.407 82.1023 199.822 85.9468 202.615 84.4994C207.489 81.9781 212.926 59.1853 207.68 53.4522C202.412 47.7084 170.279 43.0952 159.007 47.5843Z"
      fill="url(#paint14_linear_30088_33827)"/>
    <path opacity="0.8"
          d="M209.76 63.3561C209.941 59.0941 209.375 55.3394 207.657 53.452C202.411 47.6977 170.278 43.0951 158.996 47.5841C155.299 49.0541 151.194 59.625 150.629 68.2176C153.704 60.8798 174.983 52.4114 209.76 63.3561Z"
          fill="url(#paint15_linear_30088_33827)"/>
    <path opacity="0.3"
          d="M207.658 53.452C202.412 47.6977 170.28 43.0951 158.997 47.5841C157.742 48.082 156.464 49.6075 155.266 51.7444C158.997 47.5841 165.633 46.2265 182.92 47.9909C198.206 49.5401 204.243 52.4457 208.63 54.9776C208.37 54.3898 208.043 53.8813 207.658 53.4509V53.452Z"
          fill="url(#paint16_linear_30088_33827)"/>
    <path opacity="0.68"
          d="M172.473 46.5426C172.439 46.3841 172.371 46.2481 172.258 46.1133C167.034 46.1251 162.399 46.6561 159.3 47.8765C158.046 48.3625 156.745 49.8892 155.535 52.0143C157.479 52.1728 160.103 51.9918 162.94 51.4266C168.514 50.3067 172.777 48.1248 172.472 46.5426H172.473Z"
          fill="url(#paint17_linear_30088_33827)"/>
    <path opacity="0.68"
          d="M189.907 83.9216C189.895 84.0801 189.929 84.2386 190.008 84.3852C195.266 85.4708 199.833 86.1721 203.011 86.0467C204.345 85.8883 205.227 84.3616 206.437 82.2365C204.594 81.6038 203.248 81.7055 200.343 81.547C194.678 81.2526 189.998 82.3157 189.908 83.9216H189.907Z"
          fill="url(#paint18_linear_30088_33827)"/>
    <path opacity="0.37"
          d="M151.782 53.0342C153.116 50.4113 154.439 48.2176 157.13 45.7981C158.339 44.5315 161.957 42.5649 164.773 41.6035C169.803 39.8627 172.145 39.7374 174.79 39.3649C177.142 39.1958 179.222 39.0941 180.194 39.1165C182.648 39.0822 185.916 39.3199 189.002 39.7835C188.98 40.5746 185.792 45.6632 182.603 51.1575C178.612 58.461 171.614 60.7907 165.711 62.373C158.465 64.7014 148.549 63.7069 148.549 63.7069C149.069 60.4276 150.007 56.7877 151.782 53.0342Z"
          fill="url(#paint19_linear_30088_33827)"/>
    <path
      d="M164.424 66.817C168.89 67.0878 172.293 70.9773 172.022 75.4888C171.751 80.0003 167.895 83.4368 163.418 83.166C158.952 82.8952 155.549 79.0057 155.82 74.4942C156.091 69.9827 159.947 66.5344 164.424 66.817Z"
      fill="url(#paint20_radial_30088_33827)" fill-opacity="0.58"/>
    <path
      d="M164.911 75.2854C165.555 75.1388 164.99 72.6506 164.358 72.7866C163.725 72.9333 164.278 75.432 164.911 75.2854Z"
      fill="white"/>
    <path
      d="M163.157 74.821C163.633 74.7536 163.35 72.8875 162.875 72.9549C162.399 73.0223 162.671 74.8884 163.157 74.821Z"
      fill="white"/>
    <path
      d="M193.323 70.4681C197.788 70.7389 201.191 74.6284 200.921 79.1399C200.65 83.6514 196.793 87.0879 192.316 86.8171C187.851 86.5463 184.447 82.6568 184.718 78.1453C184.989 73.6338 188.856 70.1973 193.323 70.4681Z"
      fill="url(#paint21_radial_30088_33827)" fill-opacity="0.58"/>
    <path
      d="M193.809 78.9358C194.454 78.7891 193.889 76.301 193.256 76.437C192.623 76.5837 193.177 79.0824 193.809 78.9358Z"
      fill="white"/>
    <path
      d="M192.056 78.4733C192.531 78.4059 192.249 76.5398 191.773 76.6073C191.298 76.6865 191.57 78.5408 192.056 78.4733Z"
      fill="white"/>
    <g filter="url(#filter1_d_30088_33827)">
      <path
        d="M179.663 78.4281C181.031 78.8467 182.432 78.4624 183.168 77.4891C183.326 77.2739 183.326 76.9688 183.145 76.7997C182.964 76.6306 182.704 76.653 182.535 76.8671C182.037 77.534 180.953 77.7942 179.946 77.4773H179.935C178.94 77.1722 178.306 76.3917 178.216 75.4078C178.194 75.137 177.866 74.8543 177.629 74.8993C177.391 74.9442 177.323 75.3061 177.346 75.5662C177.47 76.9345 178.33 78.0082 179.664 78.4269L179.663 78.4281Z"
        fill="white"/>
      <path
        d="M174.699 77.4781C176.124 77.5005 177.436 76.7662 177.967 75.612C178.091 75.3636 178.012 75.0692 177.798 74.9556C177.584 74.8421 177.334 74.9438 177.21 75.1933C176.86 75.962 175.831 76.5048 174.779 76.4823H174.767C173.715 76.4599 172.924 75.8946 172.652 74.9781C172.585 74.7298 172.335 74.6044 172.11 74.718C171.884 74.8197 171.77 75.1248 171.849 75.3625C172.234 76.6621 173.308 77.4426 174.698 77.4769L174.699 77.4781Z"
        fill="white"/>
      <path fill-rule="evenodd" clip-rule="evenodd"
            d="M190.838 69.7633C194.216 66.8589 198.472 67.656 201.438 67.6146C202.447 67.5897 203.492 67.7683 204.494 67.9008C205.507 68.0308 205.743 68.3809 206.18 68.5772L213.073 68.0474L207.442 67.2527C204.68 65.6752 206.185 66.2416 203.046 65.6929C198.214 65.195 189.301 64.9704 188.541 70.7921C189.102 70.1311 190.836 69.7633 190.836 69.7633H190.838Z"
            fill="black"/>
      <path
        d="M201.229 76.093C201.085 76.1095 200.935 76.0599 200.828 75.9452C199.802 74.8359 198.761 73.8556 197.737 73.0301C196.774 72.2567 195.296 71.1735 193.584 70.7064L193.552 70.6981C192.054 70.296 190.638 69.9164 189.505 70.7667C189.33 70.898 189.088 70.892 188.92 70.7513C188.752 70.6118 188.702 70.3741 188.799 70.1778C189.83 68.1083 191.708 67.4082 193.876 66.7661C195.61 66.2469 203.1 65.8909 206.572 67.1173C206.818 67.2036 206.947 67.4732 206.859 67.7192C206.773 67.9652 206.503 68.0941 206.257 68.0066C203.074 66.8819 195.838 67.1634 194.146 67.6695C192.667 68.1071 191.462 68.5222 190.577 69.3405C191.627 69.1998 192.723 69.4954 193.797 69.784L193.831 69.7934C195.715 70.3078 197.299 71.4656 198.328 72.2922C199.389 73.146 200.463 74.1583 201.521 75.3007C201.699 75.4922 201.687 75.7902 201.495 75.9676C201.418 76.0386 201.325 76.0788 201.229 76.0906V76.093Z"
        fill="#FEFEFE"/>
      <path fill-rule="evenodd" clip-rule="evenodd"
            d="M170.417 66.3566C168.312 62.6729 164.238 62.0308 161.589 61.0469C160.691 60.7027 159.696 60.5301 158.756 60.329C157.804 60.1221 157.482 60.361 157.027 60.3976L151.01 57.7227L156.317 58.8047C159.3 58.2702 157.768 58.2986 160.759 58.8071C165.254 59.9021 173.324 62.5428 172.149 68.0098C171.857 67.2376 170.417 66.3542 170.417 66.3542V66.3566Z"
            fill="black"/>
      <path
        d="M159.072 68.7222C159.197 68.7825 159.347 68.7861 159.479 68.7175C160.755 68.0493 162 67.5006 163.183 67.0879C164.293 66.7012 165.966 66.201 167.651 66.3275L167.683 66.3299C169.156 66.447 170.547 66.5581 171.292 67.6816C171.407 67.8554 171.626 67.9264 171.822 67.8554C172.017 67.7833 172.137 67.5858 172.113 67.38C171.848 65.1946 170.385 63.9671 168.645 62.6994C167.255 61.6812 160.646 58.9719 157.14 58.9648C156.892 58.9648 156.691 59.1647 156.689 59.413C156.689 59.6614 156.889 59.8624 157.138 59.8636C160.353 59.8695 166.757 62.431 168.114 63.4243C169.3 64.2888 170.251 65.0456 170.783 66.0626C169.886 65.6014 168.807 65.5175 167.752 65.4335L167.719 65.4311C165.865 65.2916 164.073 65.8249 162.886 66.2388C161.662 66.6669 160.376 67.2322 159.062 67.9204C158.842 68.0352 158.757 68.3071 158.872 68.5271C158.919 68.6146 158.99 68.682 159.072 68.7222Z"
        fill="#FEFEFE"/>
    </g>
    <path d="M225.747 37.2637L219.461 65.3485L221.7 65.6193L226.403 37.4446L225.746 37.2637H225.747Z" fill="white"/>
    <path
      d="M221.824 64.8954L226.403 37.4551L226.234 37.4102L225.669 37.6136L225.634 37.7602C225.804 37.8844 226.143 37.9636 226.177 37.9293C226.019 38.5064 221.09 64.6802 221.09 64.6802L221.824 64.8954Z"
      fill="url(#paint22_linear_30088_33827)"/>
    <path
      d="M226.98 37.4213V37.2286C226.98 37.2167 226.98 37.2061 226.969 37.1943C226.969 37.16 226.957 37.1269 226.946 37.0926C226.946 37.0701 226.934 37.0476 226.924 37.0358C226.912 36.9909 226.889 36.9566 226.879 36.9223C226.867 36.8998 226.856 36.8773 226.844 36.8549C226.833 36.8324 226.822 36.8206 226.81 36.7981C226.697 36.6396 226.539 36.5155 226.335 36.4587C225.859 36.3121 225.351 36.5947 225.215 37.0807C225.158 37.2735 225.17 37.4651 225.227 37.6342C225.239 37.6685 225.249 37.7016 225.272 37.7359C225.283 37.7583 225.294 37.7808 225.306 37.8033C225.318 37.8258 225.34 37.8482 225.351 37.8707C225.363 37.8932 225.385 37.9156 225.408 37.9381C225.43 37.9606 225.453 37.9949 225.487 38.0173C225.499 38.0292 225.509 38.0398 225.521 38.0516C225.555 38.0859 225.6 38.1084 225.645 38.1309C225.657 38.1427 225.668 38.1427 225.68 38.1427C225.725 38.1651 225.781 38.1876 225.826 38.1994C226.188 38.313 226.561 38.1651 226.788 37.8943C226.867 37.8045 226.924 37.7016 226.957 37.5774C226.969 37.5206 226.979 37.4639 226.979 37.4189L226.98 37.4213Z"
      fill="white"/>
    <path opacity="0.34"
          d="M226.755 36.7207C226.812 36.8898 226.823 37.0944 226.767 37.2741C226.62 37.7495 226.134 38.0322 225.647 37.8962C225.478 37.8512 225.33 37.7495 225.229 37.6254C225.318 37.8855 225.534 38.1114 225.816 38.1906C226.292 38.3373 226.8 38.0546 226.936 37.5686C227.038 37.2635 226.948 36.9466 226.755 36.7207Z"
          fill="url(#paint23_linear_30088_33827)"/>
    <path
      d="M219.846 64.4768C215.391 65.9692 211.705 85.9807 214.352 89.4184C217.359 90.232 219.87 90.0405 221.305 88.548C222.753 87.0675 229.016 76.9707 224.912 67.5634C223.273 64.6235 221.102 64.3527 219.847 64.4768H219.846Z"
      fill="#07090C"/>
    <g opacity="0.8">
      <path
        d="M223.43 65.6524C222.119 64.4994 220.751 64.3859 219.846 64.4651C215.391 65.9575 211.705 85.969 214.352 89.4067C215.743 89.7804 217.02 89.9377 218.14 89.8584C215.381 87.5974 218.953 67.3813 223.43 65.6524Z"
        fill="#424446"/>
    </g>
    <path opacity="0.4"
          d="M223.431 65.6535C218.309 69.3502 221.135 78.2148 225.432 80.2382C226.495 76.4847 226.834 71.9507 224.911 67.5409C224.448 66.7273 223.939 66.1053 223.431 65.6523V65.6535Z"
          fill="url(#paint24_linear_30088_33827)"/>
    <path
      d="M170.277 107.7C178.336 93.5811 180.044 84.4363 174.571 82.8682C169.089 81.3108 156.283 99.0352 154.576 101.413C154.674 106.069 162.553 108.532 162.553 108.532L170.277 107.7Z"
      fill="#FFDE5A"/>
    <path
      d="M170.277 107.699C168.763 110.355 164.024 118.512 156.378 120.593C152.067 120.057 144.499 114.414 154.555 101.414C155.833 103.662 168.367 108.242 170.277 107.699Z"
      fill="url(#paint25_linear_30088_33827)"/>
    <path
      d="M168.719 85.284C177.969 84.5567 171.446 109.217 156.389 120.601C164.016 118.533 168.776 110.385 170.287 107.708C170.199 107.735 170.058 107.746 169.916 107.747L170.287 107.708C178.356 93.588 180.064 84.4326 174.581 82.8763C173.05 82.4387 170.977 83.4901 168.719 85.2828V85.284Z"
      fill="#FFDB58"/>
    <path opacity="0.7"
          d="M170.115 85.9437C169.098 88.8753 172.303 99.4096 173.302 100.029C174.33 98.0272 175.407 94.3128 176.414 91.3824C177.431 88.4508 177.759 87.5958 176.427 84.8971C175.363 82.9057 171.122 83.0121 170.116 85.9437H170.115Z"
          fill="url(#paint26_linear_30088_33827)"/>
    <path
      d="M193.64 99.8807C182.813 85.2192 174.21 79.3229 170.122 84.2247C166.041 89.1406 178.413 110.304 180.078 113.133C184.897 115.142 190.993 108.179 190.993 108.179L193.64 99.8807Z"
      fill="#FFDE5A"/>
    <path
      d="M193.639 99.8809C195.677 102.636 201.893 111.191 200.562 119.976C198.06 124.153 188.843 129.358 180.07 113.154C182.953 112.863 193.33 102.086 193.64 99.8809H193.639Z"
      fill="url(#paint27_linear_30088_33827)"/>
    <path
      d="M169.947 91.3187C173.392 81.5046 195.725 99.3685 200.576 119.968C201.911 111.208 195.713 102.636 193.653 99.8722C193.64 99.9763 193.588 100.125 193.524 100.271L193.653 99.8722C182.83 85.2001 174.216 79.3003 170.135 84.2162C168.993 85.588 169.131 88.1896 169.947 91.3187Z"
      fill="#FFDB58"/>
    <path opacity="0.7"
          d="M171.259 90.1864C173.804 92.5574 186.059 94.0451 187.147 93.3013C185.56 91.3394 182.239 88.5521 179.689 86.1916C177.145 83.8206 176.416 83.0969 173.046 83.24C170.522 83.4292 168.709 87.826 171.258 90.1864H171.259Z"
          fill="url(#paint28_linear_30088_33827)"/>
    <g filter="url(#filter2_d_30088_33827)">
      <path
        d="M138.856 71.6091C138.236 71.0616 137.459 70.6701 136.809 70.0599C136.284 69.5562 135.69 68.8502 135.605 67.9964C135.582 67.8675 135.585 67.7504 135.559 67.5955C135.499 67.4961 135.289 67.4879 135.276 67.6451C134.751 69.3066 133.438 70.9031 131.94 71.7073C131.841 71.7676 131.872 71.9733 131.99 71.9899C132.836 72.1141 133.585 72.664 134.044 73.3167C134.598 74.1575 134.743 74.9664 135.022 75.8037C135.074 75.9562 135.12 76.5132 135.299 76.6149C135.545 76.5948 135.519 76.2838 135.499 76.1939C135.715 75.1982 135.993 74.3136 136.577 73.5083C137.158 72.8201 137.78 72.2985 138.596 71.9308C138.837 72.0017 138.908 71.7617 138.856 71.6091Z"
        fill="white"/>
      <path
        d="M134.141 66.3839C133.817 66.0977 133.422 65.8967 133.082 65.5856C132.813 65.3219 132.509 64.9683 132.458 64.5166C132.439 64.4527 132.447 64.3865 132.44 64.3097C132.41 64.26 132.305 64.2553 132.298 64.3345C132.031 65.1919 131.344 66.0185 130.571 66.4359C130.521 66.4667 130.53 66.5826 130.595 66.5778C131.032 66.6452 131.42 66.9255 131.657 67.2708C131.941 67.7036 132.016 68.127 132.156 68.5586C132.188 68.6343 132.2 68.9205 132.296 68.9773C132.426 68.9666 132.412 68.8105 132.395 68.7608C132.509 68.2429 132.653 67.7876 132.957 67.3701C133.254 67.0189 133.583 66.7434 133.997 66.553C134.13 66.5944 134.173 66.4726 134.138 66.3851L134.141 66.3839Z"
        fill="white"/>
      <path
        d="M139.846 64.1314C139.453 63.7861 138.948 63.5283 138.523 63.1345C138.183 62.8105 137.806 62.3599 137.746 61.8041C137.727 61.7272 137.733 61.6492 137.712 61.5463C137.68 61.4836 137.537 61.4824 137.532 61.5747C137.192 62.6461 136.352 63.669 135.392 64.1929C135.329 64.2248 135.341 64.3667 135.42 64.3726C135.962 64.4578 136.448 64.8078 136.743 65.2265C137.102 65.7704 137.197 66.2837 137.372 66.817C137.407 66.9187 137.436 67.2676 137.546 67.3374C137.701 67.3243 137.699 67.1292 137.68 67.0654C137.822 66.428 137.997 65.8651 138.369 65.3376C138.737 64.9024 139.151 64.5548 139.667 64.3289C139.842 64.3928 139.881 64.2331 139.845 64.1314H139.846Z"
        fill="white"/>
    </g>
  </g>
  <defs>
    <filter id="filter0_d_30088_33827" x="111.018" y="25.4375" width="61.7578" height="39.3613"
            filterUnits="userSpaceOnUse" color-interpolation-filters="sRGB">
      <feFlood flood-opacity="0" result="BackgroundImageFix"/>
      <feColorMatrix in="SourceAlpha" type="matrix" values="0 0 0 0 0 0 0 0 0 0 0 0 0 0 0 0 0 0 127 0"
                     result="hardAlpha"/>
      <feOffset/>
      <feGaussianBlur stdDeviation="2"/>
      <feColorMatrix type="matrix" values="0 0 0 0 1 0 0 0 0 1 0 0 0 0 1 0 0 0 0.75 0"/>
      <feBlend mode="normal" in2="BackgroundImageFix" result="effect1_dropShadow_30088_33827"/>
      <feBlend mode="normal" in="SourceGraphic" in2="effect1_dropShadow_30088_33827" result="shape"/>
    </filter>
    <filter id="filter1_d_30088_33827" x="131.01" y="37.7227" width="102.064" height="60.873"
            filterUnits="userSpaceOnUse" color-interpolation-filters="sRGB">
      <feFlood flood-opacity="0" result="BackgroundImageFix"/>
      <feColorMatrix in="SourceAlpha" type="matrix" values="0 0 0 0 0 0 0 0 0 0 0 0 0 0 0 0 0 0 127 0"
                     result="hardAlpha"/>
      <feOffset/>
      <feGaussianBlur stdDeviation="10"/>
      <feColorMatrix type="matrix" values="0 0 0 0 1 0 0 0 0 1 0 0 0 0 1 0 0 0 0.5 0"/>
      <feBlend mode="normal" in2="BackgroundImageFix" result="effect1_dropShadow_30088_33827"/>
      <feBlend mode="normal" in="SourceGraphic" in2="effect1_dropShadow_30088_33827" result="shape"/>
    </filter>
    <filter id="filter2_d_30088_33827" x="120.539" y="51.502" width="29.3184" height="35.1133"
            filterUnits="userSpaceOnUse" color-interpolation-filters="sRGB">
      <feFlood flood-opacity="0" result="BackgroundImageFix"/>
      <feColorMatrix in="SourceAlpha" type="matrix" values="0 0 0 0 0 0 0 0 0 0 0 0 0 0 0 0 0 0 127 0"
                     result="hardAlpha"/>
      <feOffset/>
      <feGaussianBlur stdDeviation="5"/>
      <feColorMatrix type="matrix" values="0 0 0 0 1 0 0 0 0 1 0 0 0 0 1 0 0 0 0.5 0"/>
      <feBlend mode="normal" in2="BackgroundImageFix" result="effect1_dropShadow_30088_33827"/>
      <feBlend mode="normal" in="SourceGraphic" in2="effect1_dropShadow_30088_33827" result="shape"/>
    </filter>
    <linearGradient id="paint0_linear_30088_33827" x1="226.899" y1="120.747" x2="208.6" y2="120.778"
                    gradientUnits="userSpaceOnUse">
      <stop stop-color="#ECF4FF"/>
      <stop offset="1" stop-color="#1479F4"/>
    </linearGradient>
    <linearGradient id="paint1_linear_30088_33827" x1="226.9" y1="94.9394" x2="207.984" y2="111.59"
                    gradientUnits="userSpaceOnUse">
      <stop stop-color="#ECF4FF"/>
      <stop offset="1" stop-color="#1479F4"/>
    </linearGradient>
    <linearGradient id="paint2_linear_30088_33827" x1="187.822" y1="131.731" x2="203.296" y2="148.967"
                    gradientUnits="userSpaceOnUse">
      <stop offset="0.04" stop-color="#F28608"/>
      <stop offset="0.3" stop-color="#FFE273"/>
      <stop offset="0.72" stop-color="#F18508"/>
      <stop offset="1" stop-color="#F18508"/>
    </linearGradient>
    <linearGradient id="paint3_linear_30088_33827" x1="157.899" y1="119.717" x2="212.165" y2="119.717"
                    gradientUnits="userSpaceOnUse">
      <stop offset="0.04" stop-color="#F28608"/>
      <stop offset="0.57" stop-color="#FFE273"/>
      <stop offset="1" stop-color="#F18508"/>
    </linearGradient>
    <linearGradient id="paint4_linear_30088_33827" x1="241.806" y1="129.972" x2="168.629" y2="110.892"
                    gradientUnits="userSpaceOnUse">
      <stop/>
      <stop offset="1" stop-color="#021B53"/>
    </linearGradient>
    <linearGradient id="paint5_linear_30088_33827" x1="235.171" y1="160.614" x2="172.792" y2="127.038"
                    gradientUnits="userSpaceOnUse">
      <stop/>
      <stop offset="1" stop-color="#021B53"/>
    </linearGradient>
    <linearGradient id="paint6_linear_30088_33827" x1="185.886" y1="94.1225" x2="183.586" y2="104.922"
                    gradientUnits="userSpaceOnUse">
      <stop stop-color="#F18508"/>
      <stop offset="1" stop-color="#FFC000"/>
    </linearGradient>
    <linearGradient id="paint7_linear_30088_33827" x1="153.781" y1="41.0825" x2="148.521" y2="59.5491"
                    gradientUnits="userSpaceOnUse">
      <stop stop-color="#A8ACAF"/>
      <stop offset="1" stop-color="#A8ACAF" stop-opacity="0"/>
    </linearGradient>
    <linearGradient id="paint8_linear_30088_33827" x1="152.882" y1="34.5125" x2="152.7" y2="33.5125"
                    gradientUnits="userSpaceOnUse">
      <stop stop-color="#AAAEB1"/>
      <stop offset="1" stop-color="#AAAEB1" stop-opacity="0"/>
    </linearGradient>
    <linearGradient id="paint9_linear_30088_33827" x1="148.808" y1="59.7365" x2="145.813" y2="69.1464"
                    gradientUnits="userSpaceOnUse">
      <stop stop-color="#07090C"/>
      <stop offset="1" stop-color="#07090C" stop-opacity="0"/>
    </linearGradient>
    <linearGradient id="paint10_linear_30088_33827" x1="166.041" y1="40.8469" x2="200.089" y2="96.5326"
                    gradientUnits="userSpaceOnUse">
      <stop stop-color="#FFE375"/>
      <stop offset="1" stop-color="#F1B008"/>
    </linearGradient>
    <linearGradient id="paint11_linear_30088_33827" x1="182.792" y1="40.8006" x2="194.289" y2="44.3548"
                    gradientUnits="userSpaceOnUse">
      <stop stop-color="#FFD130"/>
      <stop offset="1" stop-color="#FB9825"/>
    </linearGradient>
    <linearGradient id="paint12_linear_30088_33827" x1="184.776" y1="87.0141" x2="184.928" y2="103.183"
                    gradientUnits="userSpaceOnUse">
      <stop stop-color="#FFD428"/>
      <stop offset="0.1" stop-color="#F9C723"/>
      <stop offset="0.51" stop-color="#E69910"/>
      <stop offset="0.82" stop-color="#DA7D04"/>
      <stop offset="1" stop-color="#D57200"/>
    </linearGradient>
    <linearGradient id="paint13_linear_30088_33827" x1="168.739" y1="49.4334" x2="197.309" y2="89.5388"
                    gradientUnits="userSpaceOnUse">
      <stop stop-color="#515355"/>
      <stop offset="1" stop-color="#07090C"/>
    </linearGradient>
    <linearGradient id="paint14_linear_30088_33827" x1="169.634" y1="40.7204" x2="184.477" y2="75.8936"
                    gradientUnits="userSpaceOnUse">
      <stop stop-color="#23477C"/>
      <stop offset="1" stop-color="#0A0C0F"/>
    </linearGradient>
    <linearGradient id="paint15_linear_30088_33827" x1="181.855" y1="47.1592" x2="181.108" y2="55.4718"
                    gradientUnits="userSpaceOnUse">
      <stop/>
      <stop offset="1" stop-opacity="0"/>
    </linearGradient>
    <linearGradient id="paint16_linear_30088_33827" x1="164.421" y1="48.5783" x2="199.821" y2="52.197"
                    gradientUnits="userSpaceOnUse">
      <stop stop-color="white"/>
      <stop offset="1" stop-color="white" stop-opacity="0"/>
    </linearGradient>
    <linearGradient id="paint17_linear_30088_33827" x1="164.991" y1="50.6904" x2="161.677" y2="45.8044"
                    gradientUnits="userSpaceOnUse">
      <stop stop-color="white"/>
      <stop offset="1" stop-color="white" stop-opacity="0"/>
    </linearGradient>
    <linearGradient id="paint18_linear_30088_33827" x1="204.711" y1="93.1803" x2="196.063" y2="80.0401"
                    gradientUnits="userSpaceOnUse">
      <stop stop-color="white"/>
      <stop offset="1" stop-color="white" stop-opacity="0"/>
    </linearGradient>
    <linearGradient id="paint19_linear_30088_33827" x1="164.345" y1="40.3699" x2="177.94" y2="57.2291"
                    gradientUnits="userSpaceOnUse">
      <stop stop-color="white"/>
      <stop offset="1" stop-color="white" stop-opacity="0"/>
    </linearGradient>
    <radialGradient id="paint20_radial_30088_33827" cx="0" cy="0" r="1" gradientUnits="userSpaceOnUse"
                    gradientTransform="translate(164.294 75.6511) rotate(95.62) scale(8.03428 7.95936)">
      <stop stop-color="#FF1C84"/>
      <stop offset="1" stop-color="#FFA1CC" stop-opacity="0"/>
    </radialGradient>
    <radialGradient id="paint21_radial_30088_33827" cx="0" cy="0" r="1" gradientUnits="userSpaceOnUse"
                    gradientTransform="translate(193.256 79.3414) rotate(95.62) scale(8.03428 7.95936)">
      <stop stop-color="#FF1C84"/>
      <stop offset="1" stop-color="#FFA1CC" stop-opacity="0"/>
    </radialGradient>
    <linearGradient id="paint22_linear_30088_33827" x1="226.292" y1="45.0465" x2="218.574" y2="63.7681"
                    gradientUnits="userSpaceOnUse">
      <stop stop-color="#A8ACAF"/>
      <stop offset="1" stop-color="#A8ACAF" stop-opacity="0"/>
    </linearGradient>
    <linearGradient id="paint23_linear_30088_33827" x1="226.131" y1="38.0588" x2="226.058" y2="36.9892"
                    gradientUnits="userSpaceOnUse">
      <stop stop-color="#AAAEB1"/>
      <stop offset="1" stop-color="#AAAEB1" stop-opacity="0"/>
    </linearGradient>
    <linearGradient id="paint24_linear_30088_33827" x1="223.893" y1="69.4975" x2="222.469" y2="82.0774"
                    gradientUnits="userSpaceOnUse">
      <stop stop-color="#222C3B"/>
      <stop offset="1" stop-color="#222C3B" stop-opacity="0"/>
    </linearGradient>
    <linearGradient id="paint25_linear_30088_33827" x1="151.486" y1="112.661" x2="159.587" y2="107.826"
                    gradientUnits="userSpaceOnUse">
      <stop stop-color="#F3B108"/>
      <stop offset="1" stop-color="#FFDE5A"/>
    </linearGradient>
    <linearGradient id="paint26_linear_30088_33827" x1="176.017" y1="92.3721" x2="172.768" y2="92.4521"
                    gradientUnits="userSpaceOnUse">
      <stop stop-color="white"/>
      <stop offset="1" stop-color="white" stop-opacity="0"/>
    </linearGradient>
    <linearGradient id="paint27_linear_30088_33827" x1="190.182" y1="121.459" x2="188.892" y2="110.96"
                    gradientUnits="userSpaceOnUse">
      <stop stop-color="#F3B108"/>
      <stop offset="1" stop-color="#FFDE5A"/>
    </linearGradient>
    <linearGradient id="paint28_linear_30088_33827" x1="180.507" y1="86.9812" x2="179.117" y2="90.3486"
                    gradientUnits="userSpaceOnUse">
      <stop stop-color="white"/>
      <stop offset="1" stop-color="white" stop-opacity="0"/>
    </linearGradient>
    <clipPath id="clip0_30088_33827">
      <rect x="316" y="0.5" width="28" height="28" rx="4" fill="white"/>
    </clipPath>
    <clipPath id="clip1_30088_33827">
      <rect width="115.659" height="125" fill="white" transform="translate(114.17 28.5)"/>
    </clipPath>
  </defs>
</svg>
