<svg width="188" height="83" viewBox="0 0 188 83" fill="none" xmlns="http://www.w3.org/2000/svg">
<path d="M40.8359 0H7.10537C3.18118 0 0 3.18118 0 7.10537V75.5318C0 79.456 3.18118 82.6372 7.10537 82.6372H40.8359C44.7601 82.6372 47.9413 79.456 47.9413 75.5318V7.10537C47.9413 3.18118 44.7601 0 40.8359 0Z" fill="#E1EFFE"/>
<path d="M41.0075 2.62891H6.80625C4.20604 2.62891 2.09814 4.7368 2.09814 7.33701V74.9457C2.09814 77.546 4.20604 79.6538 6.80625 79.6538H41.0075C43.6077 79.6538 45.7156 77.546 45.7156 74.9457V7.33701C45.7156 4.7368 43.6077 2.62891 41.0075 2.62891Z" fill="white"/>
<path d="M180.895 0H78.6571C74.7329 0 71.5518 3.18118 71.5518 7.10537V75.5318C71.5518 79.456 74.7329 82.6372 78.6571 82.6372H180.895C184.819 82.6372 188 79.456 188 75.5318V7.10537C188 3.18118 184.819 0 180.895 0Z" fill="#E1EFFE"/>
<path d="M180.569 2.72266H78.9615C76.3613 2.72266 74.2534 4.83055 74.2534 7.43076V75.0395C74.2534 77.6397 76.3613 79.7476 78.9615 79.7476H180.569C183.17 79.7476 185.277 77.6397 185.277 75.0395V7.43076C185.277 4.83055 183.17 2.72266 180.569 2.72266Z" fill="white"/>
<path d="M49.06 41.5644C48.8648 41.7597 48.8648 42.0763 49.06 42.2715L52.242 45.4535C52.4373 45.6488 52.7538 45.6488 52.9491 45.4535C53.1444 45.2582 53.1444 44.9417 52.9491 44.7464L50.1207 41.918L52.9491 39.0895C53.1444 38.8943 53.1444 38.5777 52.9491 38.3824C52.7538 38.1872 52.4373 38.1872 52.242 38.3824L49.06 41.5644ZM70.127 42.2715C70.3223 42.0763 70.3223 41.7597 70.127 41.5644L66.945 38.3824C66.7498 38.1872 66.4332 38.1872 66.2379 38.3824C66.0427 38.5777 66.0427 38.8943 66.2379 39.0895L69.0664 41.918L66.2379 44.7464C66.0427 44.9417 66.0427 45.2582 66.2379 45.4535C66.4332 45.6488 66.7498 45.6488 66.945 45.4535L70.127 42.2715ZM49.4136 42.418H69.7735V41.418H49.4136V42.418Z" fill="#0071F9"/>
<rect x="80.2419" y="10.7793" width="24.5516" height="31.1386" rx="4" fill="#F5F6FA"/>
<rect x="108.386" y="10.7793" width="42.5162" height="31.1386" rx="4" fill="#F5F6FA"/>
<rect x="154.496" y="10.7793" width="24.5516" height="31.1386" rx="4" fill="#F5F6FA"/>
<rect x="108.386" y="46.1094" width="42.5162" height="12.5752" rx="4" fill="#F5F6FA"/>
<rect x="5.98828" y="14.9707" width="35.3304" height="20.9587" rx="4" fill="#F5F6FA"/>
<rect x="5.98828" y="38.3242" width="35.3304" height="5.38938" rx="2.69469" fill="#F5F6FA"/>
<rect x="5.98828" y="46.1094" width="35.3304" height="5.38938" rx="2.69469" fill="#F5F6FA"/>
<rect x="5.98828" y="53.8945" width="35.3304" height="5.38938" rx="2.69469" fill="#F5F6FA"/>
<rect x="5.98828" y="61.6777" width="35.3304" height="5.38938" rx="2.69469" fill="#F5F6FA"/>
</svg>
