<svg width="183" height="170" viewBox="0 0 183 170" fill="none" xmlns="http://www.w3.org/2000/svg">
<path d="M170.619 95.0302C170.619 122.484 155.809 146.619 133.745 159.591C133.745 159.591 133.594 159.742 133.443 159.742C131.931 160.647 130.42 161.401 128.909 162.155C128.153 162.608 127.398 162.91 126.642 163.211C126.34 163.362 126.038 163.513 125.735 163.664H125.584C125.282 163.815 124.829 163.965 124.526 164.116C122.259 165.172 119.841 165.926 117.424 166.681C117.121 166.831 116.668 166.982 116.366 166.982C116.215 166.982 116.063 167.133 115.912 167.133C115.761 167.133 115.61 167.133 115.61 167.284C115.459 167.284 115.308 167.284 115.157 167.435C111.983 168.34 108.658 168.943 105.182 169.396C102.009 169.848 98.8352 169.999 95.6616 169.999C90.5234 169.999 85.5362 169.547 80.7003 168.491C80.398 168.491 80.0958 168.34 79.7935 168.34C78.7356 168.189 77.6778 167.887 76.6199 167.586C75.562 167.284 74.5042 166.982 73.4463 166.681C69.2148 165.323 64.9833 163.664 61.0541 161.703C36.8742 149.183 20.4016 123.992 20.4016 95.0302C20.4016 53.5484 54.1024 20.0613 95.5105 20.0613C137.07 20.0613 170.619 53.5484 170.619 95.0302Z" fill="#EAEEF9"/>
<path d="M89.0124 60.9416C81.7584 55.0588 77.9803 45.254 79.3404 36.0526C80.8517 25.6444 88.2568 23.6834 92.0349 25.3427C94.7551 26.5494 96.4175 30.1697 94.9062 32.8848C92.3371 37.7118 82.514 35.7509 80.5494 27.4545C79.7938 24.4376 80.5494 21.1191 82.3629 18.5548C85.3854 14.482 90.977 12.9736 95.9641 12.2194C97.1731 12.2194 98.3821 12.0685 99.44 11.9177C102.16 11.616 105.485 11.1635 108.961 10.7109" stroke="#D5DAE8" stroke-miterlimit="10" stroke-linecap="round" stroke-linejoin="round"/>
<path d="M116.517 12.5206L111.832 14.6324L112.588 6.6377" fill="#D5DAE8"/>
<path d="M146.591 2.71517L144.475 3.92192L119.993 17.6486L113.646 8.29636L112.588 6.63709L108.054 0L142.661 2.41349L146.591 2.71517Z" fill="#EAEEF9"/>
<path d="M146.591 2.71477L144.475 3.92152L113.646 8.29596L112.588 6.63669L142.661 2.41309L146.591 2.71477Z" fill="#D5DAE8"/>
<path d="M23.0737 51.0922C25.058 50.4484 26.1438 48.3209 25.4988 46.3402C24.8538 44.3596 22.7224 43.2758 20.738 43.9196C18.7537 44.5633 17.6679 46.6908 18.3128 48.6715C18.9578 50.6521 21.0893 51.7359 23.0737 51.0922Z" fill="#EAEEF9"/>
<path d="M31.3203 38.7879C32.6697 38.3501 33.408 36.9034 32.9694 35.5566C32.5308 34.2097 31.0814 33.4728 29.7321 33.9105C28.3827 34.3483 27.6444 35.795 28.0829 37.1418C28.5215 38.4886 29.971 39.2256 31.3203 38.7879Z" fill="#EAEEF9"/>
<path d="M62.3629 21.0759C64.7042 18.9403 64.8677 15.3146 62.7281 12.9777C60.5885 10.6408 56.9561 10.4776 54.6148 12.6132C52.2735 14.7487 52.11 18.3744 54.2495 20.7114C56.3891 23.0483 60.0216 23.2115 62.3629 21.0759Z" fill="#EAEEF9"/>
<path d="M180.358 50.4859C181.343 49.5867 181.412 48.0601 180.511 47.0761C179.61 46.0921 178.081 46.0234 177.095 46.9226C176.109 47.8218 176.041 49.3485 176.941 50.3324C177.842 51.3164 179.372 51.3851 180.358 50.4859Z" fill="#EAEEF9"/>
<path d="M118.179 125.652V167.134C117.877 167.285 117.575 167.285 117.273 167.436C113.797 168.341 110.17 169.095 106.543 169.547V125.652H118.179Z" fill="#4988FD"/>
<path d="M118.179 125.652V167.134C117.877 167.285 117.575 167.285 117.273 167.436C113.797 168.341 110.17 169.095 106.543 169.547V125.652H118.179Z" fill="white"/>
<path d="M128.909 125.652V162.307C128.153 162.759 127.398 163.061 126.642 163.363C126.34 163.514 126.038 163.665 125.735 163.815H125.584C125.282 163.966 124.829 164.117 124.526 164.268C122.26 165.324 119.842 166.078 117.424 166.832V125.652H128.909Z" fill="#1479F4"/>
<path d="M128.909 125.652V162.307C128.153 162.759 127.398 163.061 126.642 163.363C126.34 163.514 126.038 163.665 125.735 163.815H125.584C125.282 163.966 124.829 164.117 124.526 164.268C122.26 165.324 119.842 166.078 117.424 166.832V125.652H128.909Z" fill="#D5DAE8"/>
<path opacity="0.1" d="M128.909 141.492V159.744C128.305 160.045 127.7 160.347 127.096 160.649C126.793 160.8 126.491 160.95 126.189 161.101H126.038C125.735 161.252 125.282 161.403 124.98 161.554C122.713 162.61 120.295 163.364 117.877 164.118C117.726 164.118 117.575 164.269 117.424 164.269V160.347C117.575 159.895 117.726 159.442 117.877 158.989C120.144 153.107 123.015 148.43 126.34 144.509C127.096 143.453 128.002 142.397 128.909 141.492Z" fill="#062C78"/>
<path opacity="0.1" d="M128.909 125.652H106.543V138.625H128.909V125.652Z" fill="#062C78"/>
<path d="M176.362 79.7964V126.256H140.092V126.407H67.4009V42.9907H136.465C137.371 42.8398 138.278 42.8398 139.336 42.8398C140.545 42.8398 141.603 42.8398 142.812 42.9907C144.323 43.1415 145.683 43.2924 147.043 43.5941C154.146 45.1025 160.494 48.7227 165.481 53.5497C172.281 60.3376 176.362 69.6899 176.362 79.7964Z" fill="url(#paint0_linear_3_13895)"/>
<path d="M147.044 43.7454V78.2885C147.044 79.4952 146.137 80.4003 144.928 80.4003C143.719 80.4003 142.813 79.4952 142.813 78.2885V42.9912C144.173 43.1421 145.684 43.4437 147.044 43.7454Z" fill="url(#paint1_linear_3_13895)"/>
<path d="M145.684 90.6555C150.274 90.6555 153.996 86.9411 153.996 82.3591C153.996 77.7772 150.274 74.0627 145.684 74.0627C141.093 74.0627 137.372 77.7772 137.372 82.3591C137.372 86.9411 141.093 90.6555 145.684 90.6555Z" fill="#1479F4"/>
<path d="M147.044 89.6C151.801 89.6 155.658 85.8856 155.658 81.3037C155.658 76.7217 151.801 73.0073 147.044 73.0073C142.286 73.0073 138.43 76.7217 138.43 81.3037C138.43 85.8856 142.286 89.6 147.044 89.6Z" fill="#D5DAE8"/>
<path d="M147.497 89.6C152.088 89.6 155.809 85.8856 155.809 81.3037C155.809 76.7217 152.088 73.0073 147.497 73.0073C142.907 73.0073 139.186 76.7217 139.186 81.3037C139.186 85.8856 142.907 89.6 147.497 89.6Z" fill="#EAEEF9"/>
<path d="M147.498 84.4714C149.25 84.4714 150.671 83.0532 150.671 81.3037C150.671 79.5542 149.25 78.136 147.498 78.136C145.745 78.136 144.324 79.5542 144.324 81.3037C144.324 83.0532 145.745 84.4714 147.498 84.4714Z" fill="#D5DAE8"/>
<path d="M103.52 76.1767V126.407H29.4692V76.1767C29.4692 60.3382 40.6524 47.064 55.4626 43.7454C57.8806 43.1421 60.2986 42.9912 62.8677 42.9912H70.424C87.0477 42.9912 100.8 55.0586 103.369 71.048C103.369 72.5564 103.52 74.3665 103.52 76.1767Z" fill="url(#paint2_linear_3_13895)"/>
<path d="M149.916 41.0286V81.0019C149.916 82.2087 149.009 83.1137 147.8 83.1137C146.591 83.1137 145.684 82.2087 145.684 81.0019V41.0286H149.916Z" fill="white"/>
<path d="M91.7325 105.137C91.7325 108.305 89.1634 110.869 85.9898 110.869C26.749 110.869 30.5271 111.171 28.5625 109.964C26.9002 108.908 25.8423 107.098 25.8423 105.137C29.3181 65.7672 28.7136 66.2198 31.1316 63.9571C33.3985 61.9962 30.2249 62.5995 89.1634 62.5995C90.9769 62.5995 92.6393 63.5046 93.6972 64.7113C95.6618 67.2757 95.2084 66.3706 91.7325 105.137Z" fill="white"/>
<path d="M94.3011 65.6173C64.3785 90.959 65.1341 91.4115 60.7515 91.4115C56.0666 91.4115 56.52 90.8081 29.9221 65.6173C32.189 61.3937 30.8289 62.6005 89.314 62.6005C91.4298 62.6005 93.3944 63.8072 94.3011 65.6173Z" fill="#EAEEF9"/>
<path d="M22.215 73.915H2.56886C1.66212 73.915 0.906494 73.1608 0.906494 72.2557C0.906494 71.3507 1.66212 70.5964 2.56886 70.5964H22.215C23.1218 70.5964 23.8774 71.3507 23.8774 72.2557C23.8774 73.1608 23.1218 73.915 22.215 73.915Z" fill="url(#paint3_linear_3_13895)"/>
<path d="M21.308 83.2653H9.97365C9.0669 83.2653 8.31128 82.5111 8.31128 81.606C8.31128 80.701 9.0669 79.9468 9.97365 79.9468H21.308C22.2147 79.9468 22.9704 80.701 22.9704 81.606C22.9704 82.5111 22.2147 83.2653 21.308 83.2653Z" fill="url(#paint4_linear_3_13895)"/>
<path d="M20.2503 92.1647H13.9031C12.9963 92.1647 12.2407 91.4105 12.2407 90.5055C12.2407 89.6004 12.9963 88.8462 13.9031 88.8462H20.4014C21.3082 88.8462 22.0638 89.6004 22.0638 90.5055C22.0638 91.4105 21.3082 92.1647 20.2503 92.1647Z" fill="url(#paint5_linear_3_13895)"/>
<path d="M83.1182 91.7131H76.3176C75.8643 91.7131 75.562 92.0148 75.562 92.4673L75.4109 93.3724L75.1086 95.7859L74.9575 97.4452L74.6553 99.2553C74.6553 99.4061 74.6553 99.557 74.6553 99.7078C74.8064 100.009 75.1086 100.311 75.4109 100.311H82.2115C82.6649 100.311 82.9671 100.009 82.9671 99.557L83.8739 92.769C84.025 92.1657 83.7227 91.7131 83.1182 91.7131ZM81.4559 97.8977C81.4559 98.0485 81.3048 98.3502 81.0025 98.3502H77.6778H77.2244C76.9221 98.3502 76.771 98.0485 76.771 97.8977L76.9221 96.691L77.0733 95.0317L77.2244 94.2775C77.2244 94.1266 77.3755 93.8249 77.6778 93.8249H81.4559C81.7581 93.8249 81.9092 94.1266 81.9092 94.2775L81.4559 97.8977Z" fill="url(#paint6_linear_3_13895)"/>
<path d="M77.678 93.6745C77.3758 93.6745 77.2247 93.8254 77.2247 94.1271L77.0735 94.8813C76.3179 95.3338 75.7134 95.6355 75.1089 95.7863C74.6555 95.9372 74.2022 95.9372 73.7488 95.9372C72.3887 95.9372 71.3308 95.4847 70.4241 95.0321C69.0639 94.4288 68.7617 94.4288 68.3083 94.8813C67.8549 95.3338 67.2504 95.3338 66.7971 95.0321C66.3437 94.5796 66.3437 93.9762 66.646 93.5237C68.1572 91.7136 69.9707 92.4678 71.3308 93.0712C72.6909 93.6745 73.7488 94.2779 75.4112 93.3729C75.5623 93.222 75.8645 93.222 76.0157 93.0712C76.469 92.7695 77.2247 92.9203 77.5269 93.3729C77.678 93.3729 77.678 93.5237 77.678 93.6745Z" fill="url(#paint7_linear_3_13895)"/>
<path d="M77.6773 98.1995L77.5262 98.3503C76.4683 99.1045 75.5616 99.4062 74.8059 99.5571C74.5037 99.5571 74.2014 99.5571 74.0503 99.5571C72.6902 99.5571 71.6323 99.1045 70.7256 98.652C69.3655 98.0486 69.0632 98.0486 68.6098 98.5012C68.1565 98.9537 67.552 98.9537 67.0986 98.652C66.6452 98.1995 66.6452 97.5961 66.9475 97.1436C68.4587 95.3335 70.2722 96.0877 71.4812 96.691C72.5391 97.1436 73.5969 97.5961 74.8059 97.2944C75.2593 97.1436 75.5616 96.9927 76.1661 96.691C76.3172 96.5402 76.6194 96.5402 76.9217 96.5402L76.7706 97.7469C76.7706 98.0486 76.9217 98.1995 77.2239 98.1995H77.6773Z" fill="url(#paint8_linear_3_13895)"/>
<path opacity="0.5" d="M103.52 83.1149L103.066 70.8966C100.497 55.0581 86.7449 42.8398 70.1212 42.8398H62.565C59.9959 42.8398 57.5779 43.1415 55.1599 43.5941L54.2532 44.3483L72.9926 121.278L103.369 122.937V83.1149H103.52Z" fill="url(#paint9_linear_3_13895)"/>
<path d="M170.317 39.6717C170.922 40.1243 170.619 41.1802 169.713 41.1802H150.066H145.533V24.7383H169.713C170.468 24.7383 170.922 25.6433 170.317 26.2467L163.97 31.5262C163.063 32.2804 163.063 33.638 163.97 34.3922L170.317 39.6717Z" fill="url(#paint10_linear_3_13895)"/>
<path d="M86.1407 154.765C84.025 157.933 81.4559 163.062 79.9446 167.436C79.7935 167.738 79.6424 168.19 79.6424 168.492C78.5845 168.341 77.5266 168.039 76.4688 167.738C75.562 165.626 74.9575 163.363 74.9575 163.363C75.562 162.609 76.0154 162.006 76.6199 161.402C79.4913 157.782 82.5137 155.369 86.1407 154.765Z" fill="#B6BED6"/>
<path d="M80.5489 168.642C80.2466 168.642 79.9444 168.491 79.6421 168.491C78.5842 168.341 77.5264 168.039 76.4685 167.737C75.7129 167.586 75.1084 167.285 74.3527 167.134C74.0505 166.983 73.7483 166.983 73.446 166.832C73.1438 166.681 72.8415 166.681 72.3881 166.53C68.4589 165.324 64.6808 163.664 61.0538 161.854C57.2757 155.519 55.1599 147.675 51.533 136.965C51.533 136.814 51.533 136.814 51.3818 136.664C51.3818 136.664 51.6841 136.664 52.4397 136.965C52.8931 137.267 53.6487 137.569 54.5554 138.172C56.3689 139.379 59.2403 141.491 63.4718 144.96C68.7611 149.334 73.2949 155.821 76.4685 161.251C77.8286 163.664 79.0376 165.776 79.9444 167.436C80.2466 167.737 80.3977 168.19 80.5489 168.642Z" fill="#D5DAE8"/>
<path d="M74.3527 166.982C74.0505 166.832 73.7483 166.832 73.446 166.681C73.1438 166.53 72.8415 166.53 72.3881 166.379C65.4364 152.351 57.5779 143.451 52.8931 138.322C52.4397 137.719 51.9863 137.266 51.533 136.814C51.533 136.663 51.533 136.663 51.3818 136.512C51.3818 136.512 51.6841 136.512 52.4397 136.814C52.8931 137.116 53.6487 137.417 54.5554 138.021C59.3914 143.451 67.401 152.652 74.3527 166.982Z" fill="#EAEEF9"/>
<path d="M118.179 167.133C118.331 167.133 118.331 167.133 118.482 167.133C118.331 167.133 118.028 167.284 117.877 167.284C117.877 167.133 118.028 167.133 118.179 167.133Z" fill="#D5DAE8"/>
<path d="M118.632 166.982C118.783 166.982 118.783 166.982 118.935 166.831C118.783 166.831 118.481 166.982 118.33 166.982C118.481 166.982 118.481 166.982 118.632 166.982Z" fill="#D5DAE8"/>
<path d="M145.079 133.948C145.079 133.948 144.928 134.25 144.626 134.853C142.812 138.172 136.616 149.636 133.745 159.44C133.745 159.44 133.594 159.591 133.443 159.591C131.931 160.496 130.42 161.251 128.909 162.005C128.153 162.457 127.398 162.759 126.642 163.061C126.34 163.212 126.037 163.362 125.735 163.513H125.584C125.282 163.664 124.828 163.815 124.526 163.966C122.259 165.022 119.841 165.776 117.423 166.53C117.121 166.681 116.668 166.832 116.365 166.832C116.214 166.832 116.063 166.983 115.912 166.983C115.761 166.983 115.61 166.983 115.61 167.133C116.214 165.172 116.819 163.212 117.574 161.552C119.841 155.669 122.713 150.993 126.037 147.071C127.095 145.865 128.153 144.658 129.211 143.602C133.594 139.227 138.279 136.361 142.661 134.853C143.266 134.551 144.172 134.25 145.079 133.948Z" fill="#D5DAE8"/>
<path d="M145.08 133.948C145.08 133.948 144.928 134.25 144.626 134.853C138.883 139.831 133.594 147.675 128.909 157.781C128.154 159.591 127.398 161.251 126.642 163.212C126.34 163.362 126.038 163.513 125.736 163.664H125.584C125.282 163.815 124.829 163.966 124.527 164.117C124.678 163.815 124.829 163.664 124.829 163.664C126.189 160.346 127.549 157.178 128.909 154.312C132.99 146.015 137.523 139.378 142.359 134.853C143.266 134.551 144.173 134.25 145.08 133.948Z" fill="#EAEEF9"/>
<path d="M124.224 167.284C123.922 168.039 123.771 168.793 123.468 169.547" stroke="white" stroke-miterlimit="10"/>
<path d="M103.52 70.8947C100.951 55.0562 86.8965 42.8379 70.2728 42.8379H62.7166C60.1475 42.8379 57.7295 43.1396 55.3115 43.5921C44.7328 46.0056 36.1187 53.3969 31.8872 63.0508C32.3406 62.7492 33.0962 62.5983 34.6075 62.4475C38.6878 54.1511 46.3952 47.8157 55.7649 45.7039C57.8806 45.2514 60.2986 44.9497 62.5655 44.9497H70.1217C85.5364 44.9497 98.382 55.9612 100.8 71.0455C101.102 72.554 101.253 74.2132 101.253 75.8725V123.841H31.7361V110.566C30.5271 110.566 29.9226 110.416 29.4692 110.265V126.103H103.974V76.1742C103.974 74.3641 103.822 72.554 103.52 70.8947Z" fill="#1479F4"/>
<path d="M103.974 121.126V126.406H2.72024C1.209 126.406 0 125.199 0 123.841C0 122.333 1.209 121.126 2.72024 121.126H103.974Z" fill="#1479F4"/>
<defs>
<linearGradient id="paint0_linear_3_13895" x1="67.432" y1="84.6633" x2="176.415" y2="84.6633" gradientUnits="userSpaceOnUse">
<stop stop-color="#8CC0FF"/>
<stop offset="1" stop-color="#1479F4"/>
</linearGradient>
<linearGradient id="paint1_linear_3_13895" x1="142.814" y1="61.7136" x2="147.046" y2="61.7136" gradientUnits="userSpaceOnUse">
<stop stop-color="#8CC0FF"/>
<stop offset="1" stop-color="#1479F4"/>
</linearGradient>
<linearGradient id="paint2_linear_3_13895" x1="29.4904" y1="84.7392" x2="103.556" y2="84.7392" gradientUnits="userSpaceOnUse">
<stop stop-color="#8CC0FF"/>
<stop offset="1" stop-color="#1479F4"/>
</linearGradient>
<linearGradient id="paint3_linear_3_13895" x1="0.948192" y1="72.251" x2="23.9096" y2="72.251" gradientUnits="userSpaceOnUse">
<stop stop-color="#FFE2B3"/>
<stop offset="1" stop-color="#FF9F00"/>
</linearGradient>
<linearGradient id="paint4_linear_3_13895" x1="8.33789" y1="81.6013" x2="22.9909" y2="81.6013" gradientUnits="userSpaceOnUse">
<stop stop-color="#FFE2B3"/>
<stop offset="1" stop-color="#FF9F00"/>
</linearGradient>
<linearGradient id="paint5_linear_3_13895" x1="12.2586" y1="90.5008" x2="22.0776" y2="90.5008" gradientUnits="userSpaceOnUse">
<stop stop-color="#FFE2B3"/>
<stop offset="1" stop-color="#FF9F00"/>
</linearGradient>
<linearGradient id="paint6_linear_3_13895" x1="74.6721" y1="96" x2="83.9254" y2="96" gradientUnits="userSpaceOnUse">
<stop stop-color="#FFE2B3"/>
<stop offset="1" stop-color="#FF9F00"/>
</linearGradient>
<linearGradient id="paint7_linear_3_13895" x1="66.4557" y1="94.158" x2="77.6938" y2="94.158" gradientUnits="userSpaceOnUse">
<stop stop-color="#FFE2B3"/>
<stop offset="1" stop-color="#FF9F00"/>
</linearGradient>
<linearGradient id="paint8_linear_3_13895" x1="66.7567" y1="97.7779" x2="77.6926" y2="97.7779" gradientUnits="userSpaceOnUse">
<stop stop-color="#FFE2B3"/>
<stop offset="1" stop-color="#FF9F00"/>
</linearGradient>
<linearGradient id="paint9_linear_3_13895" x1="101.647" y1="82.0659" x2="70.3692" y2="83.5234" gradientUnits="userSpaceOnUse">
<stop stop-color="#0C1E82"/>
<stop offset="1" stop-color="#001DB5" stop-opacity="0"/>
</linearGradient>
<linearGradient id="paint10_linear_3_13895" x1="145.578" y1="32.9359" x2="170.667" y2="32.9359" gradientUnits="userSpaceOnUse">
<stop stop-color="#FFE2B3"/>
<stop offset="1" stop-color="#FF9F00"/>
</linearGradient>
</defs>
</svg>
